<svg xmlns="http://www.w3.org/2000/svg" width="35" height="35"><style></style><g id="Services"><g id="Pen"><path id="pen" d="M30.4 3.58C28.75 1.94 26.59 1 24.45 1c-1.8 0-3.46.67-4.67 1.88l-4.87 4.9c-.01.01-.03.02-.04.04-.01.01-.02.02-.02.03L4.52 18.26c-.48.47-.82 1.06-1.02 1.7l-2.34 8.51c-.01.02-.16.69-.16 1.03C1 31.43 2.57 33 4.5 33c.39 0 1.13-.18 1.16-.19l8.48-2.23a4.04 4.04 0 001.7-1.01l15.27-15.38c2.77-2.78 2.46-7.44-.71-10.61zM17.01 24.8c-.08-.91-.33-1.79-.71-2.63l9.45-9.46c.58 1.83.28 3.74-.99 5.01 0 .01-.01.01-.02.02l.01.01-7.73 7.79c.01-.25.02-.49-.01-.74zm-1.22-3.54c-.37-.62-.79-1.21-1.32-1.73-.61-.61-1.31-1.09-2.04-1.49l9.53-9.54c.75.34 1.46.81 2.1 1.44.54.54.96 1.14 1.28 1.77l-9.55 9.55zm-4.3-3.7c-.93-.37-1.9-.58-2.87-.6l7.7-7.76c1.18-1.15 2.9-1.48 4.59-1.06l-9.42 9.42zM5.17 30.87c-.11.03-.45.11-.68.13-.82-.01-1.49-.68-1.49-1.5.01-.17.08-.46.1-.56l1.05-3.82c1.15-.03 2.38.42 3.34 1.39.99.98 1.45 2.23 1.4 3.39l-3.72.97zm4.7-1.23C9.85 28.3 9.3 26.9 8.2 25.8c-1.04-1.04-2.4-1.65-3.76-1.7l.99-3.61c.07-.24.22-.47.39-.68 2.01-1.44 5.09-1.01 7.24 1.13 2.26 2.27 2.61 5.59.87 7.57-.12.06-.23.12-.36.16l-3.7.97zm19.82-16.87l-1.68 1.7c0-.23.03-.44 0-.67-.17-1.94-1.07-3.81-2.54-5.27-1.63-1.63-3.79-2.57-5.93-2.57l1.66-1.67C22.03 3.46 23.18 3 24.45 3c1.61 0 3.26.73 4.53 2 1.2 1.19 1.91 2.67 2.01 4.16.09 1.4-.37 2.68-1.3 3.61z" fill="#666d89"/></g></g></svg>