<svg xmlns="http://www.w3.org/2000/svg" width="26" height="36"><style></style><g id="Services"><g id="Phone"><path id="phone" d="M21 2H5C3.34 2 2 3.34 2 5v26c0 1.66 1.34 3 3 3h16c1.66 0 3-1.34 3-3V5c0-1.66-1.34-3-3-3zm1 29c0 .55-.45 1-1 1H5c-.55 0-1-.45-1-1v-2h18v2zm0-3H4V8h18v20zm0-21H4V5c0-.55.45-1 1-1h16c.55 0 1 .45 1 1v2zm-7-1.5c0 .28-.22.5-.5.5h-3c-.28 0-.5-.22-.5-.5s.22-.5.5-.5h3c.28 0 .5.22.5.5zm-1 25c0 .27-.22.5-.5.5h-1c-.28 0-.5-.23-.5-.5 0-.28.22-.5.5-.5h1c.28 0 .5.22.5.5z" fill="#666d89"/></g></g></svg>