<svg xmlns="http://www.w3.org/2000/svg" width="26" height="35"><style></style><g id="Services"><g id="Bulb"><path id="bulb" d="M13 1C6.92 1 2 5.92 2 12c0 4.03 3.69 8.3 5.03 12.05C9.03 29.65 8.81 33 13 33c4.25 0 3.96-3.33 5.97-8.92C20.32 20.32 24 16 24 12c0-6.08-4.92-11-11-11zm2.59 27.18l-4.96.62c-.17-.52-.36-1.12-.59-1.9-.01-.01-.01-.02-.01-.03l6.19-.77c-.09.29-.19.6-.27.88-.13.45-.25.84-.36 1.2zm-5.85-2.27c-.19-.6-.39-1.24-.62-1.91h7.77c-.13.36-.25.72-.35 1.06l-6.8.85zM13 31c-1.01 0-1.48-.12-2-1.25l4.24-.53C14.63 30.87 14.18 31 13 31zm4.67-9H8.34c-.5-1.08-1.1-2.16-1.69-3.22C5.35 16.45 4 14.03 4 12c0-4.96 4.04-9 9-9s9 4.04 9 9c0 2.02-1.35 4.45-2.66 6.8-.58 1.05-1.17 2.13-1.67 3.2zM13 6c-3.31 0-6 2.69-6 6 0 .28.22.5.5.5s.5-.22.5-.5c0-2.76 2.24-5 5-5 .28 0 .5-.22.5-.5S13.28 6 13 6z" fill="#666d89"/></g></g></svg>