<svg xmlns="http://www.w3.org/2000/svg" width="36" height="32"><style></style><g id="Services"><g id="Heart"><path id="heart" d="M31.19 4.79C27.56 1.2 21.76 1.13 18 4.5c-3.76-3.37-9.56-3.3-13.19.29a9.404 9.404 0 000 13.4c1.07 1.06 11.05 10.93 11.05 10.93a3.048 3.048 0 004.28 0l11.05-10.93c3.74-3.7 3.74-9.7 0-13.4zm-1.42 11.99L18.71 27.71c-.39.39-1.03.39-1.42 0L6.24 16.78a7.413 7.413 0 010-10.58c2.84-2.81 7.41-2.91 10.4-.22L18 7.2l1.36-1.22c2.99-2.69 7.56-2.59 10.41.22a7.43 7.43 0 010 10.58zM11.25 7.03C8.9 7.03 7 8.93 7 11.27c0 .28.23.5.5.5.28 0 .5-.22.5-.5 0-1.79 1.46-3.24 3.25-3.24.28 0 .5-.23.5-.5 0-.28-.22-.5-.5-.5z" fill="#666d89"/></g></g></svg>