<svg xmlns="http://www.w3.org/2000/svg" width="36" height="34"><style></style><g id="Services"><g id="Star"><path id="star" d="M33.88 12.56c-.28-.8-.99-1.39-1.84-1.51l-8.33-1.24-3.62-7.52A2.322 2.322 0 0018 1c-.9 0-1.71.51-2.09 1.29l-3.62 7.52-8.33 1.24c-.85.12-1.56.71-1.84 1.51s-.07 1.68.54 2.28l6.1 6.09-1.42 8.46c-.14.85.23 1.7.95 2.2.4.27.87.41 1.33.41.39 0 .77-.09 1.12-.28L18 27.81l7.26 3.91c.35.19.73.28 1.12.28.46 0 .93-.14 1.33-.41.72-.5 1.09-1.35.95-2.2l-1.42-8.46 6.1-6.09c.61-.6.82-1.48.54-2.28zm-8.29 6.8c-.51.51-.75 1.23-.63 1.94l1.42 8.45-7.26-3.91c-.35-.19-.74-.28-1.12-.28-.38 0-.77.09-1.12.28l-7.26 3.91 1.42-8.45c.12-.71-.12-1.43-.63-1.94l-6.1-6.09 8.33-1.24a2.3 2.3 0 001.74-1.27L18 3.25l3.62 7.51a2.3 2.3 0 001.74 1.27l8.33 1.24-6.1 6.09z" fill="#666d89"/></g></g></svg>